<mxfile host="app.diagrams.net" agent="Mozilla/5.0 (Windows NT 10.0; Win64; x64) AppleWebKit/537.36 (KHTML, like Gecko) Chrome/135.0.0.0 Safari/537.36" version="26.2.12">
  <diagram name="Page-1" id="vynCBVq9XJ8pfg_LBHzF">
    <mxGraphModel dx="1093" dy="591" grid="1" gridSize="10" guides="1" tooltips="1" connect="1" arrows="1" fold="1" page="1" pageScale="1" pageWidth="850" pageHeight="1100" math="0" shadow="0">
      <root>
        <mxCell id="0" />
        <mxCell id="1" parent="0" />
        <mxCell id="zl5Z9rwR7qq4CWvOWsA4-19" style="rounded=0;orthogonalLoop=1;jettySize=auto;html=1;entryX=0;entryY=0.5;entryDx=0;entryDy=0;edgeStyle=orthogonalEdgeStyle;curved=1;" edge="1" parent="1" source="zl5Z9rwR7qq4CWvOWsA4-1" target="zl5Z9rwR7qq4CWvOWsA4-4">
          <mxGeometry relative="1" as="geometry">
            <Array as="points">
              <mxPoint x="200" y="300" />
              <mxPoint x="200" y="105" />
            </Array>
          </mxGeometry>
        </mxCell>
        <mxCell id="zl5Z9rwR7qq4CWvOWsA4-20" style="edgeStyle=orthogonalEdgeStyle;rounded=0;orthogonalLoop=1;jettySize=auto;html=1;entryX=0;entryY=0.5;entryDx=0;entryDy=0;curved=1;" edge="1" parent="1" source="zl5Z9rwR7qq4CWvOWsA4-1" target="zl5Z9rwR7qq4CWvOWsA4-9">
          <mxGeometry relative="1" as="geometry" />
        </mxCell>
        <mxCell id="zl5Z9rwR7qq4CWvOWsA4-21" style="edgeStyle=orthogonalEdgeStyle;rounded=0;orthogonalLoop=1;jettySize=auto;html=1;entryX=0;entryY=0.5;entryDx=0;entryDy=0;curved=1;" edge="1" parent="1" source="zl5Z9rwR7qq4CWvOWsA4-1" target="zl5Z9rwR7qq4CWvOWsA4-10">
          <mxGeometry relative="1" as="geometry" />
        </mxCell>
        <mxCell id="zl5Z9rwR7qq4CWvOWsA4-22" style="edgeStyle=orthogonalEdgeStyle;rounded=0;orthogonalLoop=1;jettySize=auto;html=1;entryX=0;entryY=0.5;entryDx=0;entryDy=0;curved=1;" edge="1" parent="1" source="zl5Z9rwR7qq4CWvOWsA4-1" target="zl5Z9rwR7qq4CWvOWsA4-15">
          <mxGeometry relative="1" as="geometry" />
        </mxCell>
        <mxCell id="zl5Z9rwR7qq4CWvOWsA4-23" style="edgeStyle=orthogonalEdgeStyle;rounded=0;orthogonalLoop=1;jettySize=auto;html=1;entryX=0;entryY=0.5;entryDx=0;entryDy=0;curved=1;" edge="1" parent="1" source="zl5Z9rwR7qq4CWvOWsA4-1" target="zl5Z9rwR7qq4CWvOWsA4-16">
          <mxGeometry relative="1" as="geometry" />
        </mxCell>
        <mxCell id="zl5Z9rwR7qq4CWvOWsA4-1" value="Joueur" style="shape=umlActor;verticalLabelPosition=bottom;verticalAlign=top;html=1;outlineConnect=0;" vertex="1" parent="1">
          <mxGeometry x="120" y="270" width="30" height="60" as="geometry" />
        </mxCell>
        <mxCell id="zl5Z9rwR7qq4CWvOWsA4-4" value="Gérer la session de jeu" style="ellipse;whiteSpace=wrap;html=1;" vertex="1" parent="1">
          <mxGeometry x="400" y="80" width="120" height="50" as="geometry" />
        </mxCell>
        <mxCell id="zl5Z9rwR7qq4CWvOWsA4-11" style="edgeStyle=orthogonalEdgeStyle;rounded=0;orthogonalLoop=1;jettySize=auto;html=1;exitX=0.5;exitY=0;exitDx=0;exitDy=0;" edge="1" parent="1" source="zl5Z9rwR7qq4CWvOWsA4-6" target="zl5Z9rwR7qq4CWvOWsA4-4">
          <mxGeometry relative="1" as="geometry" />
        </mxCell>
        <mxCell id="zl5Z9rwR7qq4CWvOWsA4-6" value="Démarrer le jeu" style="ellipse;whiteSpace=wrap;html=1;" vertex="1" parent="1">
          <mxGeometry x="260" y="170" width="120" height="50" as="geometry" />
        </mxCell>
        <mxCell id="zl5Z9rwR7qq4CWvOWsA4-12" style="edgeStyle=orthogonalEdgeStyle;rounded=0;orthogonalLoop=1;jettySize=auto;html=1;exitX=0.5;exitY=0;exitDx=0;exitDy=0;" edge="1" parent="1" source="zl5Z9rwR7qq4CWvOWsA4-7">
          <mxGeometry relative="1" as="geometry">
            <mxPoint x="460.52631578947376" y="130" as="targetPoint" />
          </mxGeometry>
        </mxCell>
        <mxCell id="zl5Z9rwR7qq4CWvOWsA4-7" value="Mettre le jeu en pause" style="ellipse;whiteSpace=wrap;html=1;" vertex="1" parent="1">
          <mxGeometry x="400" y="170" width="120" height="50" as="geometry" />
        </mxCell>
        <mxCell id="zl5Z9rwR7qq4CWvOWsA4-13" style="edgeStyle=orthogonalEdgeStyle;rounded=0;orthogonalLoop=1;jettySize=auto;html=1;exitX=0.5;exitY=0;exitDx=0;exitDy=0;entryX=0.5;entryY=1;entryDx=0;entryDy=0;" edge="1" parent="1" source="zl5Z9rwR7qq4CWvOWsA4-8" target="zl5Z9rwR7qq4CWvOWsA4-4">
          <mxGeometry relative="1" as="geometry" />
        </mxCell>
        <mxCell id="zl5Z9rwR7qq4CWvOWsA4-8" value="Quitter le jeu" style="ellipse;whiteSpace=wrap;html=1;" vertex="1" parent="1">
          <mxGeometry x="540" y="170" width="120" height="50" as="geometry" />
        </mxCell>
        <mxCell id="zl5Z9rwR7qq4CWvOWsA4-9" value="Sélectionner l&#39;équipe et la faction" style="ellipse;whiteSpace=wrap;html=1;" vertex="1" parent="1">
          <mxGeometry x="400" y="250" width="120" height="50" as="geometry" />
        </mxCell>
        <mxCell id="zl5Z9rwR7qq4CWvOWsA4-10" value="Écraser la hyène" style="ellipse;whiteSpace=wrap;html=1;" vertex="1" parent="1">
          <mxGeometry x="400" y="320" width="120" height="50" as="geometry" />
        </mxCell>
        <mxCell id="zl5Z9rwR7qq4CWvOWsA4-15" value="Démarrer le tutoriel" style="ellipse;whiteSpace=wrap;html=1;" vertex="1" parent="1">
          <mxGeometry x="400" y="390" width="120" height="50" as="geometry" />
        </mxCell>
        <mxCell id="zl5Z9rwR7qq4CWvOWsA4-16" value="Utiliser le bonus" style="ellipse;whiteSpace=wrap;html=1;" vertex="1" parent="1">
          <mxGeometry x="400" y="460" width="120" height="50" as="geometry" />
        </mxCell>
        <mxCell id="zl5Z9rwR7qq4CWvOWsA4-25" value="CRUSH!" style="swimlane;whiteSpace=wrap;html=1;" vertex="1" parent="1">
          <mxGeometry x="240" y="40" width="430" height="490" as="geometry" />
        </mxCell>
      </root>
    </mxGraphModel>
  </diagram>
</mxfile>
